# xmcd
#
# Track frame offsets: 
#        150
#        19467
#        36535
#        54780
#        75765
#        100147
#        114157
#        140765
#        168315
#        183760
#        210420
#        227462
#        244405
#        263622
#
# Disc length: 3763 seconds
#
# Revision: 2
# Processed by: cddbd v1.5.2PL0 Copyright (c) Steve Scherf et al.
# Submitted via: ExactAudioCopyFreeDBPlugin 1.0
#
DISCID=aa0eb10e
DTITLE=Cathy Lemon Blues Band - Dark Road
DYEAR=1999
DGENRE=Blues
TTITLE0=Rollin' an Tumblin'
TTITLE1=Hard Headed  Man
TTITLE2=Dirty Man
TTITLE3=Let Me Be Good
TTITLE4=Worry Worry
TTITLE5=Sayin' It Plain
TTITLE6=Good Morning Little Schoolboy
TTITLE7=Dark Road
TTITLE8=Lonesome Whistle Blues
TTITLE9=Takin' a Train
TTITLE10=I Need You So Bad
TTITLE11=Just Got To Know
TTITLE12=Little By Little
TTITLE13=You Belong To Me
EXTD=ID3G:   0
EXTT0=
EXTT1=
EXTT2=
EXTT3=
EXTT4=
EXTT5=
EXTT6=
EXTT7=
EXTT8=
EXTT9=
EXTT10=
EXTT11=
EXTT12=
EXTT13=
PLAYORDER=
